<?xml version="1.0" encoding="utf-8"?>
<!-- Generator: Adobe Illustrator 24.3.0, SVG Export Plug-In . SVG Version: 6.00 Build 0)  -->
<svg version="1.1" id="Layer_1" xmlns="http://www.w3.org/2000/svg" xmlns:xlink="http://www.w3.org/1999/xlink" x="0px" y="0px"
	 viewBox="0 0 1920 1080" style="enable-background:new 0 0 1920 1080;" xml:space="preserve">
<style type="text/css">
	.st0{fill:#F7931E;}
</style>
<g>
	<path class="st0" d="M965.61,593.2c0-25.16,0-48.88,0-73.37c13.95,0.7,28.19-2.48,41.76,2.88c13.3,5.25,17.58,16.89,19.01,29.83
		c1.08,9.74-1.59,18.76-6.9,26.99c-3.69,5.72-8.92,10.1-15.47,10.9C991.4,591.98,978.64,592.33,965.61,593.2z M979.51,531.91
		c0,16.42,0,32.26,0,48.49c10.53-0.6,22,2.55,28.59-8.19c6.03-9.82,6.28-20.74,0.27-30.85
		C1001.75,530.22,990.48,531.71,979.51,531.91z"/>
	<path d="M993.14,422.56c-9.59,8.39-20.32,10.31-31.33,7.77c-13.51-3.12-26.67-7.76-40-11.66c-2.54-0.74-5.16-1.31-7.79-1.59
		c-15.26-1.63-23.3,4.51-28.2,22.37c-2.28,8.34-2.33,17.3-3.28,25.99c-0.22,2.04-0.03,4.12-0.03,6.19
		c-0.52,0.09-1.04,0.18-1.56,0.27c-1.89-6.15-3.93-12.25-5.64-18.45c-3.19-11.57-5.53-23.36-2.87-35.29
		c3.63-16.34,18.34-25.01,34.74-21.63c15.01,3.09,28.02,10.87,41.73,17c10.13,4.53,20.19,9.3,31.57,9.64
		C984.42,423.29,988.37,422.81,993.14,422.56z"/>
	<path class="st0" d="M1035.68,470.46c-0.64-8.96-0.59-18.31-2.15-27.39c-1.91-11.09-7.03-20.78-17.19-26.88
		c-8.74-5.24-18.04-4.42-27.63-2.94c-7.8,1.2-15.86,2.16-23.64,1.44c-4.79-0.44-9.27-4.23-13.58-7.35
		c14.19,3.56,27.13-1.12,40.23-4.51c7.88-2.03,15.72-4.56,23.74-5.59c16.9-2.18,27.92,6.52,30.66,23.21
		C1048.29,433.62,1042.73,459.8,1035.68,470.46z"/>
	<path d="M946.35,548.23c0.24-1.59,0.4-2.72,0.61-4.1c3.33,0,6.6,0,10.66,0c0,7.96,0,16.03,0,24.1c0,7.95,0,15.9,0,24.15
		c-3.63,0-6.88,0-10.55,0c-0.21-1.3-0.43-2.69-0.58-3.66c-17.23,7.84-31.15,5.53-38.51-13.56c-3.96-10.25,0.93-22.79,9.6-28.6
		C924.02,542.26,936.81,539.86,946.35,548.23z M918.58,567.2c-0.04,7.79,6.03,14.42,13.35,14.57c7.18,0.15,13.64-6.59,13.69-14.26
		c0.04-7.12-6.58-13.73-13.69-13.68C924.78,553.89,918.61,560.06,918.58,567.2z"/>
	<path d="M1208.33,547.83c0.25-1.29,0.49-2.5,0.73-3.73c3.48,0,6.75,0,10.28,0c0,16.09,0,31.97,0,48.23c-3.21,0-6.44,0-10.13,0
		c-0.24-1.11-0.54-2.48-0.73-3.36c-20.71,8.3-35.34,3.66-39.51-19.9c-1.64-9.28,3.25-17.54,11.33-22.87
		C1188.59,540.72,1198.55,541.52,1208.33,547.83z M1194.01,553.83c-7.07,0.04-13.44,6.34-13.42,13.29
		c0.02,7.92,5.98,14.46,13.34,14.65c7.16,0.19,13.64-6.56,13.68-14.24C1207.65,560.3,1201.19,553.79,1194.01,553.83z"/>
	<path d="M1082.25,571.6c-12.52,0-24.81,0-37.38,0c-0.34,4.76,2.24,7.52,5.67,9.12c4.87,2.27,10.53,2.8,14.55-0.95
		c4.86-4.54,9.99-3.06,15.36-3.17c-2.17,10.36-13.76,18.07-27.55,16.02c-13.12-1.96-22.09-14.99-20.23-29.18
		c1.7-12.95,14.63-22.21,28.93-20.53C1072.25,544.16,1085.15,555.46,1082.25,571.6z M1069.93,562.18c-2.2-6.12-6.64-9.35-12.11-9.34
		c-6.29,0.01-10.64,3.17-12.53,9.34C1053.38,562.18,1061.4,562.18,1069.93,562.18z"/>
	<path d="M823.92,592.77c-14.21,0.04-25.32-10.95-25.31-25.03c0.02-14,11.19-24.88,25.39-25.08c17.57-0.25,25.28,14.04,25.21,25.11
		C849.13,580.45,840.44,592.79,823.92,592.77z M810.57,567.38c-0.11,8.55,5.04,14.28,12.94,14.4c8.25,0.13,14.18-6.05,14.07-14.66
		c-0.1-7.27-6.02-13.22-13.3-13.34C816.1,553.64,810.68,559.02,810.57,567.38z"/>
	<path d="M714.42,549.03c6.43-5.44,13.46-6.69,20.83-2.67c7.23,3.95,9.37,10.75,9.33,18.54c-0.05,9.11-0.01,18.21-0.01,27.59
		c-3.88,0-7.31,0-11.58,0c0-3.54,0.04-7.11-0.01-10.68c-0.08-6.15,0.05-12.32-0.41-18.44c-0.38-5.05-3.54-8.13-8.27-8.35
		c-4.32-0.2-7.85,1.68-9.38,5.9c-0.88,2.44-1.34,5.14-1.4,7.74c-0.18,7.79-0.06,15.58-0.06,23.73c-3.91,0-7.47,0-11.37,0
		c0-15.35,0-30.71,0-46.85C706.16,547.11,711.08,543.18,714.42,549.03z"/>
	<path d="M1131.58,592.31c-3.81,0-7.07,0-10.95,0c-0.12-1.77-0.29-3.51-0.33-5.24c-0.2-8.13-0.14-16.28-0.65-24.39
		c-0.27-4.26-2.47-7.52-7.38-7.93c-5.53-0.47-8.66,1.2-10.44,6.25c-0.81,2.29-1.17,4.84-1.22,7.28c-0.15,7.8-0.06,15.61-0.06,24.29
		c-3.19,0-6.13,0.23-9-0.13c-0.98-0.12-2.53-1.71-2.54-2.65c-0.16-14.76-0.11-29.52-0.11-44.6c3.9,0,7.32,0,11.21,0
		c0.21,0.93,0.48,2.08,0.72,3.11c2.81-1.46,5.3-3.28,8.08-4.09c10.96-3.19,22.07,4.58,22.56,16.09
		C1131.93,570.75,1131.58,581.23,1131.58,592.31z"/>
	<path d="M906.61,464.23c0.26-0.36,0.71-0.53,1.14-0.42c1.9,0.47,3.83,0.85,5.64,1.54c15.2,5.78,30.95,8.67,47.17,8.54
		c15.72-0.13,30.9-3.32,45.47-9.33c1.87-0.6,2.8-0.59,3.7-0.55c0.74,0.03,1.11,0.76,0.94,1.48c-0.49,2.15-0.87,2.21-1.91,3.27
		c-10.62,9.03-22.41,15.98-36.17,19.11c-21.24,4.83-39.95-1.14-57.04-13.65c-2.54-1.86-4.94-3.94-7.24-6.09
		c-0.78-0.73-1.25-1.78-1.79-2.76c-0.2-0.36-0.17-0.79,0.07-1.13L906.61,464.23z"/>
	<path d="M750.97,545.95c3.59,0,6.89,0,10.32,0c0.2,1.15,0.38,2.23,0.6,3.5c0.59-0.3,1.05-0.44,1.4-0.72
		c5.92-4.82,12.47-6.25,19.45-2.86c6.55,3.17,9.83,8.74,9.89,16.02c0.08,10.11,0.02,20.21,0.02,30.6c-3.54,0-6.97,0-11.03,0
		c0-7.94,0-15.87,0-23.79c-0.01-8.88-3.42-13.79-9.57-13.78c-6.02,0.01-10.32,5.73-10.41,14.06c-0.08,7.77-0.02,15.55-0.02,23.56
		c-3.74,0-7.01,0-10.64,0C750.97,577.16,750.97,561.79,750.97,545.95z"/>
	<path class="st0" d="M695.3,520.41c0,24.02,0,47.75,0,71.88c-4.31,0-8.53,0-13.19,0c0-23.8,0-47.64,0-71.88
		C686.24,520.41,690.47,520.41,695.3,520.41z"/>
	<path d="M878.03,576.71c3.55-9.76,6.85-18.04,9.53-26.52c1.34-4.24,3.43-5.97,7.8-5.25c1.73,0.28,3.54,0.05,6.15,0.05
		c-3.16,7.92-6.01,15.08-8.88,22.22c-3.07,7.64-6.3,15.22-9.19,22.93c-1.23,3.28-3.71,2.89-6.01,2.55c-1.8-0.27-4.52-0.98-5.03-2.22
		c-5.79-14.35-11.25-28.84-16.76-43.3c-0.16-0.42-0.02-0.96-0.02-2.16c3.08,0,6.23-0.41,9.19,0.18c1.4,0.28,2.97,2.25,3.54,3.8
		C871.58,557.75,874.54,566.64,878.03,576.71z"/>
	<path d="M1144.68,591.92c0-12.29,0-24.37,0-36.8c-2.34-0.23-4.39-0.42-6.75-0.65c0-3.12,0-6.17,0-9.47
		c2.03-0.11,3.98-0.22,6.58-0.36c0-5.07,0-10.11,0-15.42c3.91,0,7.17,0,11.21,0c0,4.9,0,9.92,0,15.22c2.84,0.24,4.94,0.42,7.4,0.63
		c0,3,0,6.03,0,9.35c-2.26,0.2-4.36,0.38-7.18,0.63c0,7.43,0,14.83,0,22.24c0,1.99,0,3.98,0,5.98
		C1155.94,593.61,1155.94,593.61,1144.68,591.92z"/>
	<path d="M1225.92,529.25c3.53,0,6.78,0,10.36,0c0,20.95,0,41.82,0,63.05c-3.35,0-6.71,0-10.36,0
		C1225.92,571.24,1225.92,550.39,1225.92,529.25z"/>
	<path d="M975.98,626.11c2.97-4.44,5.93-8.11,8.04-12.21c2.35-4.57,5.54-6.22,10.76-4.74c0,6.52,0,13.22,0,20.31
		c-1.57,0.08-3.15,0.16-5.1,0.26c0-5.42,0-10.52,0-15.61c-0.29-0.12-0.58-0.24-0.87-0.36c-2.99,4.43-5.98,8.86-8.96,13.29
		c-2.53,3.75-5.87,3.79-8.36,0.05c-2.74-4.1-5.4-8.25-9.1-12.26c0,4.8,0,9.6,0,14.61c-2.18,0.12-3.63,0.2-5.43,0.3
		c0-6.93,0-13.64,0-20.6c4.7-1.19,8.37-0.69,10.89,4.4C969.96,617.8,973,621.59,975.98,626.11z"/>
	<path class="st0" d="M802.99,626.79c3.23-4.84,6.47-9.05,8.98-13.66c2.11-3.88,4.8-5.18,9.67-3.79c0,5.94,0.14,12.19-0.17,18.42
		c-0.04,0.85-2.39,1.58-4.64,2.96c0-6.7,0-11.95,0-17.19c-0.35-0.14-0.7-0.28-1.06-0.41c-2.95,4.43-5.9,8.86-8.85,13.28
		c-3.08,4.61-5.37,4.61-8.48-0.03c-2.82-4.21-5.61-8.45-9.57-12.36c0,4.99,0,9.98,0,15.27c-2.02,0-3.38,0-4.92,0
		c0-6.78,0-13.36,0-19.85c4.81-1.6,7.99-0.51,10.37,4.01C796.71,617.95,799.87,622.05,802.99,626.79z"/>
	<path d="M730.57,623.01v4.09c0,1.21-0.98,2.2-2.2,2.2h-1.12c-1.21,0-2.2-0.98-2.2-2.2v-15.78c0-1.21,0.98-2.19,2.19-2.2
		c8.03-0.04,16.04-0.25,24.01,0.23c1.48,0.09,2.86,1.76,4.25,3.28c0.77,0.84,0.77,2.12,0.01,2.96c-1.19,1.31-2.37,2.62-3.7,3.78
		c-0.01,0.01-0.03,0.02-0.04,0.03c-1.14,0.92-1.26,2.61-0.11,3.52c0.81,0.64,1.6,1.27,2.39,1.9c2.2,1.75-0.29,5.18-2.58,3.55
		c-0.93-0.66-1.79-1.48-2.62-2.3c-4.59-4.58-9.92-6.11-16.38-5.25C731.38,620.98,730.57,621.92,730.57,623.01z M748.5,612.45
		c-5.28-1.65-10.37-0.65-15.4-0.73c-1.23-0.02-2.25,0.96-2.25,2.19v1.63c0,1.27,1.07,2.29,2.34,2.19
		c5.06-0.39,10.26,0.97,15.54-1.14C750.62,615.82,750.45,613.06,748.5,612.45z"/>
	<path d="M684.01,630.18c0-7.65,0-14.23,0-21.85c8.45,0.49,16.72,0.45,24.82,1.6c5.51,0.79,8.75,5.31,8.59,9.5
		c-0.17,4.21-3.57,8.44-9.04,9.17C700.52,629.66,692.53,629.68,684.01,630.18z M689.84,626.71c5.07,0,9.7,0.27,14.29-0.07
		c4.75-0.35,7.56-3.48,7.51-7.57c-0.05-4.81-3.38-6.77-7.33-7.2c-4.69-0.5-9.48-0.12-14.47-0.12
		C689.84,616.8,689.84,621.52,689.84,626.71z"/>
	<path d="M1043.07,629.62c0-7.21,0-13.78,0-20.61c7.71,0,15.19-0.44,22.58,0.14c5.83,0.46,10.22,4.57,10.65,8.95
		c0.44,4.44-1.8,7.68-5.79,9.5c-2.07,0.94-4.37,1.84-6.6,1.92C1057.11,629.78,1050.3,629.62,1043.07,629.62z M1048.75,626.7
		c5.17,0,9.97,0.34,14.7-0.1c4.09-0.39,7.08-2.63,7.2-7.31c0.11-4.5-2.77-6.87-6.59-7.29c-4.99-0.55-10.1-0.14-15.3-0.14
		C1048.75,616.89,1048.75,621.49,1048.75,626.7z"/>
	<path d="M1003.93,629.35c0-6.92,0-13.37,0-20.21c9.66,0,19.19,0,28.72,0c-1.08,2.42-1.08,2.42-10.47,2.42c-3.97,0-7.94,0-12.32,0
		c-0.1,1.85-0.19,3.41-0.34,6c7.57,0,14.8,0,22.03,0c0.01,0.69,0.02,1.38,0.03,2.07c-7.17,0-14.34,0-21.75,0c0,2.95,0,4.85,0,6.87
		c8.02,0.36,15.89,0.7,23.76,1.11c0.14,0.01,0.23,0.87,0.43,1.72C1024.03,629.35,1014.2,629.35,1003.93,629.35z"/>
	<path d="M1176.74,619.71c0,2.99,0,4.78,0,6.77c8.04,1.27,16.34-0.63,24.25,1.05c-0.04,0.58-0.08,1.15-0.12,1.73
		c-9.79,0-19.59,0-29.74,0c0-6.61,0-13.3,0-20.09c9.65,0,19.11,0,28.95,0c-2.19,2.39-2.19,2.39-11.06,2.39c-3.96,0-7.92,0-12.15,0
		c0,2,0,3.57,0,6.21c7.31,0,14.5,0,21.69,0c-0.01,0.64-0.03,1.29-0.04,1.93C1191.43,619.71,1184.34,619.71,1176.74,619.71z"/>
	<path d="M848.78,630.89c-4.44-1.25-9.34-1.87-13.5-3.96c-7.64-3.82-7.64-11.01-0.24-15.18c9.03-5.09,18.53-4.74,27.56-0.36
		c2.62,1.27,5.58,5.32,5.41,7.89c-0.2,2.9-3.2,6.59-5.99,8.1C858.25,629.43,853.53,629.73,848.78,630.89z M848.45,627.62
		c3.3-0.66,6.28-0.54,8.36-1.85c2.36-1.49,5.38-4.24,5.41-6.47c0.03-2.22-2.87-5.46-5.25-6.54c-5.63-2.53-11.79-2.19-17.34,0.51
		c-1.82,0.89-3.66,3.65-3.75,5.62c-0.09,1.95,1.56,4.83,3.3,5.81C842.07,626.35,845.65,626.81,848.45,627.62z"/>
	<path d="M881.4,609.07c0.12,2.51,0.24,4.93,0.37,7.57c6.71,0,13.11,0,19.78,0c0.15-2.52,0.28-4.79,0.45-7.64
		c1.7-0.08,3.39-0.15,5.35-0.24c0,7,0,13.6,0,20.57c-1.7,0-3.38,0-5.46,0c0-3.07,0-6.01,0-9.28c-6.79,0-13.21,0-20.18,0
		c0,3.02,0,6.09,0,9.39c-2.15,0-3.75,0-5.73,0c0-6.62,0-13.33,0-20.37C877.65,609.07,879.36,609.07,881.4,609.07z"/>
	<path d="M950.55,629.26c-4.18,1.06-6.73,0.38-8.77-2.9c-0.9-1.43-3.26-2.4-5.1-2.69c-2.75-0.44-5.65,0.07-8.45-0.16
		c-3.31-0.27-5.45,0.78-7.41,3.64c-1.14,1.66-3.92,2.19-5.96,3.23c-0.3-0.46-0.6-0.92-0.91-1.39c4.55-6.26,8.88-12.7,13.75-18.71
		c2.21-2.73,5.68-2.76,8.08,0.16C940.7,616.42,945.37,622.62,950.55,629.26z M937.91,620.53c-2.4-3.23-4.27-5.74-6.37-8.57
		c-2.18,3.15-3.9,5.65-5.91,8.57C929.82,620.53,933.37,620.53,937.91,620.53z"/>
	<path d="M1215.82,629.43c-2.39,0-3.98,0-5.79,0c0-6.85,0-13.42,0-20.35c9.02,0,17.89,0,27.86,0c-3.58,4.01-7.52,2.1-10.83,2.4
		c-3.6,0.33-7.25,0.08-11.17,0.08c0,2.14,0,3.87,0,6.29c6.03,0,12.02,0,18.01,0c0.05,0.71,0.11,1.42,0.16,2.14
		c-5.77,1.38-11.9-0.02-18.24,0.82C1215.82,623.53,1215.82,626.26,1215.82,629.43z"/>
	<path class="st0" d="M1131.32,630.44c-1.83-1.21-4.21-2.05-5.36-3.73c-2.04-2.96-4.35-4.21-7.89-3.81
		c-2.3,0.26-4.67,0.25-6.98,0.01c-3.37-0.36-5.52,0.8-7.35,3.74c-1,1.6-3.3,2.39-5.01,3.55c-0.37-0.48-0.75-0.96-1.12-1.44
		c4.43-6.17,8.59-12.57,13.49-18.33c1.05-1.23,5.96-1.26,7.07-0.03c5.18,5.76,9.66,12.16,14.38,18.33
		C1132.15,629.3,1131.74,629.87,1131.32,630.44z M1121.42,620.66c-2.62-3.57-4.59-6.27-6.86-9.36c-2.31,3.36-4.19,6.09-6.44,9.36
		C1112.77,620.66,1116.51,620.66,1121.42,620.66z"/>
	<path d="M1145.89,610.99c-4.9,0-9.07,0-13.25,0c0.04-0.55,0.07-1.09,0.11-1.64c10.54,0,21.08,0,32.71,0
		c-4.39,3.99-9.23,1.09-13.65,2.72c0,5.46,0,11.19,0,17.27c-2.18,0-3.86,0-5.91,0C1145.89,623.58,1145.89,617.98,1145.89,610.99z"/>
</g>
</svg>
